# xmcd CD database file
#
# Track frame offsets:
#	150
#	18533
#	32136
#	54801
#	69061
#	94053
#	105723
#	121914
#	140546
#	160265
#	182794
#	199558
#
# Disc length: 2958 seconds
#
# Revision: 0
# Processed by: cddbd v1.5.2PL0 Copyright (c) Steve Scherf et al.
# Submitted via: CDex 1.51
#
DISCID=970b8c0c
DTITLE=Doug James and Sax Gordon - The Heavy Horns Of Doug James and Sax Gordon
DYEAR=2006
DGENRE=Blues
TTITLE0=Can't Stand Up
TTITLE1=Cool Dude
TTITLE2=California
TTITLE3=The Bump
TTITLE4=C Blues
TTITLE5=BoBo Bay Window
TTITLE6=Steppin´
TTITLE7=Wombat Boogie
TTITLE8=Ol´ Henry
TTITLE9=Knickerbocker Rocker
TTITLE10=Buggin´
TTITLE11=I´ll Take the Fifth
EXTD=YEAR: 2006
EXTT0=
EXTT1=
EXTT2=
EXTT3=
EXTT4=
EXTT5=
EXTT6=
EXTT7=
EXTT8=
EXTT9=
EXTT10=
EXTT11=
PLAYORDER=
